# xmcd
#
# Track frame offsets: 
#        150
#        14550
#        30990
#        42925
#        55647
#        72440
#        85797
#        100945
#        112917
#        132332
#
# Disc length: 2027 seconds
#
# Revision: 2
# Processed by: cddbd v1.5.2PL0 Copyright (c) Steve Scherf et al.
# Submitted via: ExactAudioCopy v0.95b4
#
DISCID=7907e90a
DTITLE=Sonny Terry - Sonny is King
DYEAR=1900
DGENRE=Blues
TTITLE0=One monkey don't stop the show
TTITLE1=Changed the lock on my door
TTITLE2=Tater pie
TTITLE3=She's so sweet
TTITLE4=Diggin' my potatoes
TTITLE5=Sonny's coming
TTITLE6=Ida Mae
TTITLE7=Callin' my mama
TTITLE8=Bad luck
TTITLE9=Blues from the bottom
EXTD=
EXTT0=
EXTT1=
EXTT2=
EXTT3=
EXTT4=
EXTT5=
EXTT6=
EXTT7=
EXTT8=
EXTT9=
PLAYORDER=
